<?xml version="1.0" encoding="UTF-8"?>
<svg version="1.1" viewBox="0 0 2048 2048" width="1280" height="1280" xmlns="http://www.w3.org/2000/svg">
<path transform="translate(1006,158)" d="m0 0h35l20 3 21 6 18 8 18 10 16 12 10 9 12 12 13 18 9 15 16 28 14 24 15 26 14 24 16 28 14 24 8 14 14 24 16 28 15 26 14 24 12 21 14 24 16 28 10 17 45 78 14 24 16 28 14 24 8 14 14 24 12 21 15 26 11 19 14 24 16 28 14 24 8 14 11 19 14 24 16 28 10 17 16 28 14 24 15 26 14 24 16 28 14 24 8 14 14 24 16 28 15 26 14 24 12 21 14 24 16 28 10 17 45 78 14 24 16 28 14 24 8 14 14 24 12 21 9 16 7 15 7 21 4 20 1 10v27l-2 17-5 21-10 25-10 18-9 13-8 10-16 16-13 10-18 11-15 7-20 7-19 4-17 2h-1623l-17-2-19-4-22-8-21-11-14-10-13-11-12-12-10-13-10-16-10-19-7-20-5-22-2-19v-13l3-26 6-23 10-24 14-24 10-18 14-24 11-19 14-24 16-28 15-26 12-20 6-11 16-28 14-24 11-19 14-24 16-28 15-26 14-24 12-21 15-26 14-24 60-104 14-24 16-28 14-24 45-78 10-17 16-28 14-24 16-28 14-24 30-52 14-24 15-26 13-23 16-27 16-28 30-52 14-24 15-26 16-28 14-24 15-26 14-24 16-28 14-24 15-26 12-21 14-24 15-26 12-21 13-22 9-14 11-14 4-5h2l2-4h2v-2l11-9 13-10 19-11 19-8 21-6zm2 457-20 3-21 6-17 7-18 10-17 13-13 12-10 11-8 11-8 13-8 16-6 16-5 19-2 12-1 13v11l6 84 6 64 7 65 9 70 8 56 11 69 11 62 10 50 5 14 7 9 8 7 11 5 5 1h16l26-3h47l31 3h9l10-2 12-6 8-8 6-10 5-19 12-64 7-39 10-64 8-55 6-44 8-69 7-72 5-60 3-44-1-23-4-22-8-24-8-17-12-19-12-14-13-13-16-12-13-8-16-8-17-6-15-4-19-3zm7 811-20 2-25 6-20 8-18 10-11 8-13 11-15 15-13 18-8 14-8 17-7 23-3 18-1 11v21l3 22 5 20 8 20 10 18 11 15 9 10 14 14 18 13 16 9 13 6 17 6 20 4 18 2h17l24-3 20-5 20-8 17-9 14-10 13-11 13-13 13-17 9-16 7-15 6-18 4-18 2-24-1-23-4-22-8-24-9-19-9-14-11-14-11-12-11-9-15-11-14-8-19-8-20-6-17-3-13-1z"/>
</svg>
