<?xml version="1.0" encoding="UTF-8"?>
<svg version="1.1" viewBox="0 0 2048 2048" width="1280" height="1280" xmlns="http://www.w3.org/2000/svg">
<path transform="translate(1007)" d="m0 0h34v2l9 3 18 10 19 12 23 14 333 205 21 13 23 14 60 37 21 13 23 14 19 12 23 14 47 29 21 13 23 14 26 16 73 45 23 14 24 15 23 14 125 77 10 8 8 8 8 13 2 8h2v33l-2 2-8 16-11 12-9 6-15 6-15 2h-1931l-13-2-12-5-11-7-8-8-7-11-6-14v-29l7-15 9-12 8-7 22-14 23-14 73-45 177-109 23-14 16-10 23-14 24-15 23-14 47-29 23-14 24-15 28-17 24-15 28-17 24-15 28-17 16-10 23-14 19-12 28-17 21-13 26-16 23-14 16-10 23-14 19-12 28-17 21-13 26-16 23-14 16-10 15-9zm-26 353-14 2-10 4-10 6-8 7-7 10-4 8-3 9-1 5v18l5 16 6 10 9 10 11 7 12 5 10 2h95l12-3 9-4 11-7 7-7 8-13 4-12 1-5v-16l-3-12-7-14-8-10-11-8-14-6-14-2z"/>
<path transform="translate(58,1767)" d="m0 0h1930l16 2 12 5 13 9 10 12 9 18v193h-2l-8 16-8 10-13 9-16 7h-1955l-15-7-11-8-8-8-8-13-4-10v-190h2l1-6 7-13 11-12 11-7 12-5z"/>
<path transform="translate(142,833)" d="m0 0h1763l1 1v66l-4 16-6 11-7 9-10 8-12 6-12 3-11 1h-1642l-15-2-13-5-10-7-10-10-6-10-5-12-1-5-1-68z"/>
<path transform="translate(1131,1073)" d="m0 0h240l1 1v573l-1 1h-240l-1-1v-571z"/>
<path transform="translate(222,1073)" d="m0 0h239l2 2v572l-1 1h-240l-1-5v-568z"/>
<path transform="translate(1585,1073)" d="m0 0h240l1 1v573l-1 1h-240z"/>
<path transform="translate(677,1073)" d="m0 0h239l1 1v573l-1 1h-240v-574z"/>
</svg>
