<?xml version="1.0" encoding="UTF-8"?>
<svg version="1.1" viewBox="0 0 2048 2048" width="1280" height="1280" xmlns="http://www.w3.org/2000/svg">
<path transform="translate(250,599)" d="m0 0h1548l2 4-4 46-6 73-6 72-12 145-8 97-8 96-12 145-8 97-8 96-16 194-8 96-9 110-5 35-5 19-9 22-7 13-12 18-9 11h-2l-2 4-10 10-17 13-14 9-15 8-18 7-26 7-11 2h-1017l-24-5-26-8-25-13-14-10-16-13-15-16-8-10-12-19-7-14-8-21-5-25-3-23-18-216-14-170-14-168-14-170-13-157-24-290-8-96v-4zm403 122-13 4-11 6-10 9-9 14-4 12-1 5v28l20 325 30 484 9 141 3 17 5 12 7 9 8 8 14 8 15 4h15l16-4 11-6 12-11 7-11 5-13 1-5v-24l-15-241-19-307-16-258-9-144-2-17-4-12-7-12-10-10-12-7-14-4zm360 0-13 4-9 5-11 9-9 13-4 10-2 10-1 23v941l1 20 4 16 6 10 9 10 9 7 11 5 12 3h15l16-4 11-6 12-11 7-11 4-10 2-10v-981l-2-11-4-11-7-10-5-6-13-9-13-5-5-1zm362 0-12 3-13 7-12 11-7 11-4 10-3 16-8 126-7 114-14 226-11 176-11 180-8 129v27l3 12 5 10 7 9 7 7 14 8 15 4h15l16-4 11-6 12-11 7-11 4-10 2-9 2-28 8-129 10-159 7-113 16-258 7-115 10-161v-21l-3-13-6-12-8-10-12-9-11-5-9-2z"/>
<path transform="translate(758)" d="m0 0h534l4 2 19 5 18 6 16 8 16 9 22 18 11 11 9 11 10 14 11 20 7 19 5 17 2 10 2 21 1 51-1 17h356l25 2 16 4 15 6 17 10 11 9 8 7 11 14 9 15 6 14 4 14 2 14v23l-2 14-6 20-8 16-9 13-11 12-11 10-18 11-14 6-19 5-18 2h-1569l-19-2-18-5-19-9-13-9-12-11-10-11-9-14-7-14-6-19-2-13-1-16 3-23 6-20 10-19 10-13 2-3h2l2-4 10-9 14-10 16-8 16-5 9-2 23-2h357v-58l3-32 3-14 9-27 10-19 9-14 14-17 6-7 11-9 12-10 13-8 21-11 25-8 11-3 7-1zm28 120-13 1-13 4-9 5-11 9-8 11-5 13-2 9-1 37v30l596 1 3-1v-65l-3-15-8-15-8-9-14-9-11-4-16-2z"/>
<path transform="translate(505,2047)" d="m0 0h7v1h-7z"/>
<path transform="translate(1293)" d="m0 0 2 1z"/>
<path transform="translate(754)" d="m0 0"/>
</svg>
