<?xml version="1.0" encoding="UTF-8"?>
<svg version="1.1" viewBox="0 0 2048 2048" width="1280" height="1280" xmlns="http://www.w3.org/2000/svg">
<path transform="translate(1263,344)" d="m0 0 4 1 437 437-2 4-1127 1127-10 6-15 5-96 24-185 46-177 44-35 9-2 1h-22l-15-8-9-8-8-14-1-3v-25l3-9 35-140 17-69 71-284 5-10 8-10z"/>
<path transform="translate(1691)" d="m0 0h27v1l27 4 24 6 22 8 17 8 17 10 16 12 14 12 134 134 18 22 11 17 11 21 7 17 8 28 2 10h2v71l-2 2-6 26-6 18-8 18-6 12-9 14-10 14-9 11h-2l-2 4-156 156-1 2-4-2-437-437 2-4 4-4h2v-2h2v-2h2v-2h2v-2h2l2-4h2l2-4 132-132 8-7 12-10 16-11 19-11 24-10 21-6 12-3 19-3z"/>
</svg>
