<?xml version="1.0" encoding="UTF-8"?>
<svg version="1.1" viewBox="0 0 2048 2048" width="1280" height="1280" xmlns="http://www.w3.org/2000/svg">
<path transform="translate(385)" d="m0 0h1093l-4 6-13 16-9 13-11 17-10 17-14 29-9 24-6 19-7 30-3 18-3 34-1 624-2 1-53 3-38 4-36 6-36 8-35 10-32 11-30 12-26 12-30 15-24 14-19 12-12 8-28 20-16 13-10 8-11 10-8 7-13 12-23 23-7 8-12 13-9 11-13 16-12 16-14 20-11 17-8 13-16 28-17 34-13 30-11 30-10 31-8 30-6 28-6 34-4 35-2 36v43l2 36 5 42 7 39 11 44 13 40 10 26 14 32 17 34 14 24 11 18 17 25 14 19 9 11 13 16 9 10 7 8 14 15 23 23 8 7 14 12 3 3-1 4-15 15-10 7-10 5-15 4h-10l-16-4-16-8-11-11-8-7-65-65h-3l-1 3-7 6-5 6-8 7-55 55-12 9-13 6-13 3h-9l-16-4-16-8-13-12-59-59-6-5v-2h-2l-4-4-7 6-9 10-58 58-13 10-12 6-14 4h-19l-1-2-13-5-10-6-13-12-73-73-7 6-13 13-7 8-13 13-1 2h-2l-2 4-18 18-7 8-10 10-15 10-18 6h-20l-2-2-13-5-11-7-10-10-8-13-3-9-1-6-1-33v-1664l1-24 4-30 6-25 5-16 7-19 9-20 7-13 11-18 13-18 11-13 9-10 4-5 8-7 8-8 14-11 12-9 20-13 20-11 23-10 27-9 26-6zm390 306-12 3-16 9-9 9-7 11-4 9-2 9-1 15v113h-119l-15 2-11 4-11 7-9 9-7 11-5 14-1 6v15l3 11 8 16 9 10 12 8 15 5 5 1 125 1 1 2v112l1 14 4 14 5 9 8 10 10 8 13 6 8 2h22l15-5 11-7 5-4 8-10 6-12 3-13 1-125 1-1 125-1 15-4 11-6 8-6 8-10 7-14 3-15-1-16-4-12-6-11-11-12-10-6-9-4-8-2-11-1-118-1-1-125-4-16-6-11-11-12-13-8-11-4-6-1zm-362 599-13 4-9 5-11 9-9 13-5 13-2 18 3 15 5 12 10 13 11 8 10 5 12 3 10 1h374l38-1 14-4 11-6 10-9 7-9 6-13 2-9v-18l-4-14-6-11-8-10-10-7-10-5-12-3zm0 240-13 4-9 5-10 8-9 12-4 8-3 11-1 7v9l4 17 6 11 8 10 9 7 12 6 11 3 11 1h220l29-1 13-4 11-6 10-8 9-13 4-10 2-8v-20l-4-13-5-10-8-10-12-9-12-5-8-2zm5 239-14 3-14 7-10 9-6 7-6 11-4 17v12l4 16 6 11 8 10 13 9 12 5 10 2h214l13-3 12-6 9-7 8-9 8-16 2-8v-20l-4-14-6-11-9-10-8-6-13-6-13-3z"/>
<path transform="translate(1371,967)" d="m0 0h29l33 2 34 4 28 5 30 7 30 9 30 11 26 11 32 16 24 14 17 11 20 14 13 10 10 8 13 11 10 9 8 7 22 22 7 8 10 11 11 14 12 15 13 19 10 15 12 20 12 22 13 27 13 32 11 33 8 30 7 36 4 29 2 24 1 20v31l-2 34-5 39-7 35-8 30-12 36-10 24-11 24-13 25-7 12-15 24-20 28-13 16-11 13-11 12-1 2h-2v2h-2l-2 4-12 12h-2v2h-2v2l-8 7-11 10-11 9-15 12-18 13-18 12-25 15-24 13-25 12-27 11-36 12-34 9-31 6-45 7h-89l-57-9-31-7-29-8-32-11-28-12-25-12-19-10-17-10-27-18-19-14-14-11-10-9-11-9-11-11-8-7-16-17-10-11-9-11-10-12-12-16-20-30-13-22-10-18-13-28-12-29-11-33-8-30-6-29-5-34-3-34v-57l3-34 5-33 6-29 8-30 11-33 11-27 12-26 12-23 12-20 16-24 13-18 10-13 24-28 34-34 8-7 13-11 14-11 18-13 24-16 25-15 31-16 28-12 24-9 24-8 40-10 32-6 33-4zm6 238-12 3-12 6-9 7-8 10-6 12-3 9-1 12-2 4-16 8-13 9-13 11-9 9-10 13-12 21-7 18-4 16-2 18v14l2 17 5 19 7 16 6 11 8 11 9 11 14 13 17 12 18 10 21 10 42 17 16 8 13 9 5 4 6 9 2 8-1 9-4 10-4 5v2h-2v2h-2v2l-14 7-12 3h-22l-15-3-16-5-30-15-14-3h-13l-16 4-9 5-9 7-9 10-7 15-2 9v20l4 13 6 11 9 10 11 8 12 7 20 9 35 12 3 16 5 13 8 11 8 8 12 7 12 4 7 1h12l13-3 14-7 9-7 9-12 6-14 2-9v-12l7-4 16-8 18-12 13-11 11-11 10-13 9-14 9-19 6-19 3-14 1-8v-28l-3-19-6-20-11-23-12-17-11-12-9-9-13-10-15-10-27-14-28-12-25-10-21-11-7-7-2-4 1-9 4-8 5-4 10-4 7-1h10l12 2 10 4 13 9 15 7 10 2h13l11-2 10-4 11-7 10-10 6-10 4-11 1-5v-21l-4-13-6-11-9-10-12-10-15-9-19-9-10-4-4-18-8-16-9-10-14-9-12-4-5-1z"/>
<path transform="translate(1688)" d="m0 0h61l4 2 28 7 18 7 19 9 19 12 13 10 11 10 8 7 9 10 10 13 10 15 8 14 9 21 6 19 5 23 2 19v594l-3 12-5 12-7 9-7 7-13 8-13 4-6 1h-371v-646l2-19 5-24 8-24 11-23 12-19 10-13 10-11 6-7 8-7 12-10 18-12 16-9 18-8 18-6 20-5z"/>
<path transform="translate(1331,2047)" d="m0 0h5v1h-5z"/>
<path transform="translate(650,2047)" d="m0 0 4 1z"/>
<path transform="translate(893,2047)" d="m0 0 3 1z"/>
<path transform="translate(673,2047)" d="m0 0 2 1z"/>
<path transform="translate(434,2047)" d="m0 0"/>
</svg>
