<?xml version="1.0" encoding="UTF-8"?>
<svg version="1.1" viewBox="0 0 2048 2048" width="1280" height="1280" xmlns="http://www.w3.org/2000/svg">
<path transform="translate(1819,870)" d="m0 0h33l18 3 16 5 17 7 14 8 11 8 11 9 11 11 12 16 6 10 9 21 5 19 2 13v30l-3 19-5 19-8 20-8 16-9 15-8 12-12 17-16 23-13 19-10 14-11 16-12 17-14 20-13 19-12 17-18 26-16 23-11 16-9 13-16 23-11 16-9 13-16 23-26 38-12 17-11 16-12 16-8 10-11 13-3 4h-2l-2 4-16 16-8 7-13 11-15 11-15 10-16 9-16 8-18 8-24 8-24 6-25 4-24 2-557 1-25 1-440-440-4-3 1-4 8-8 8-7 13-13 8-7 12-11 11-9 18-14 18-12 20-12 16-8 17-8 23-8 22-6 20-4 21-3 15-1 43-1h652l25 2 19 4 22 8 19 10 14 10 14 12 8 8 11 14 9 14 8 16 6 17 4 15 2 14v34l-3 18-6 21-7 16-9 16-8 11-11 13-9 9-13 10-16 10-17 8-18 6-20 4-10 1-22 1-353 1-10 5-7 9-3 10v12l4 11 4 6 8 5 7 2h372l26-3 22-5 20-7 16-7 14-7 19-12 12-10 8-7 10-9 11-12 15-20 12-21 8-17 9-27 4-18 3-25v-32l-3-22-4-18-6-20-11-25-12-21-5-7 2-4 203-203 11-9 14-10 14-8 17-7 25-6z"/>
<path transform="translate(1010,63)" d="m0 0h27l31 2 31 4 29 6 23 6 30 10 24 10 25 12 22 12 19 12 17 12 13 10 11 9 14 12 8 8 8 7 4 4v2h2l7 8 11 12 11 14 15 20 13 20 9 15 8 14 11 23 10 24 8 23 7 23 7 31 5 33 2 24v54l-2 23-4 28-6 29-8 28-9 26-12 28-14 28-13 22-15 22-13 17-14 17-12 13-24 24-8 7-17 14-15 11-14 10-18 11-21 12-22 11-29 12-33 11-28 7-26 5-33 4-15 1h-48l-26-2-32-5-23-5-29-8-23-8-26-11-25-12-18-10-24-15-15-11-14-11-11-9-12-11-8-7-20-20-9-11-9-10-10-13-13-18-12-19-12-21-10-19-12-28-10-28-9-32-6-31-4-30-2-30v-26l2-31 4-30 7-34 9-31 10-28 13-29 13-25 13-21 8-12 8-11 12-16 12-14 7-8 5-6h2l2-4 12-12h2v-2l8-7 10-9 14-11 13-10 27-18 17-10 19-10 23-11 26-10 24-8 32-8 27-5 36-4zm9 129-10 3-8 6-4 5-4 11-1 18v58l-11 3-14 6-15 9-14 11-8 8-9 11-9 14-8 18-4 12-3 18v27l4 20 5 15 8 16 12 17 8 9h2v2l14 11 11 7 16 8 20 6 12 2 25 2 13 3 13 7 9 7 8 10 7 14 3 12v21l-4 14-8 14-8 9-10 7-8 4-14 4-15 1-16-3-12-5-12-9-8-9-8-15-3-11-2-18-4-11-7-8-10-5-3-1h-15l-10 5-7 6-5 10-1 4v19l3 18 6 18 7 14 8 12 11 13 9 9 14 10 10 6 19 8 8 2v67l2 13 4 8 5 5 8 5 6 2h14l12-5 8-8 4-12 1-75 11-3 18-8 15-10 13-11 7-7 10-13 9-16 6-14 5-21 1-8v-22l-3-19-5-17-8-17-8-12-8-10-5-6-11-9-11-8-10-6-20-8-16-4-33-3-12-3-12-6-13-11-7-10-6-13-2-8-1-16 3-16 8-16 8-10 10-8 12-6 12-3h22l12 3 13 7 10 9 7 8 7 14 3 12 2 18 4 10 7 8 10 5 5 1h10l11-4 7-5 5-7 3-9v-19l-3-17-5-17-8-16-7-12-12-14-8-8-15-11-14-8-17-7-5-1-1-7-1-69-4-11-7-8-8-4-9-2z"/>
<path transform="translate(286,1215)" d="m0 0 10 1 12 6 4 3v2l4 2 504 504 8 10 4 9v16l-6 12-7 8-7 6-5 6-7 6-5 6-7 6-5 6-7 6-5 6-7 6-5 6-7 6-5 6-7 6-5 6-7 6-5 6-7 6-5 6-7 6-5 6-7 6-5 6-7 6-5 6-7 6-5 6-7 6-5 6h-2l-2 4h-2l-2 4-8 7-7 7-10 5-4 1h-13l-9-4-8-6-514-514-6-12-1-11 4-13 8-10 191-191 10-6z"/>
</svg>
