<?xml version="1.0" encoding="UTF-8"?>
<svg version="1.1" viewBox="0 0 2048 2048" width="1280" height="1280" xmlns="http://www.w3.org/2000/svg">
<path transform="translate(961)" d="m0 0h135v1l63 7 45 7 48 10 39 10 34 10 41 14 32 12 31 13 29 13 39 19 24 13 23 13 13 8 21 13 37 25 38 28 17 14 11 9 13 11 11 9 7 7 16 14 4-2 15-15h2l1-3 8-7 106-106h2l2-4h2v-2h2v-2h2v-2h2v-2h2v-2h2v-2h2v-2h2v-2l8-7 13-13 13-10 16-8 17-4h23l14 3 12 5 14 9 12 11 8 10 8 14 6 16v636h-2l-5 14-8 14-9 11-11 9-11 7-12 5-11 3-17 2h-597l-18-2-13-4-12-6-12-9-11-11-9-13-6-13-3-9-2-16 1-16 5-19 9-16 9-10 7-8 177-177-2-4-11-9-10-9-11-9-13-11-51-36-29-17-28-16-39-18-27-11-36-12-19-6-47-11-36-6-43-5-40-2h-56l-38 3-32 4-29 5-39 9-35 10-34 12-22 9-29 13-28 14-23 13-23 14-15 10-23 16-18 14-13 11-10 8-14 13-8 7-34 34-6 8h-2l-2 4-9 10-11 14-14 18-12 17-14 21-10 16-21 42-18 41-13 30-12 28-10 22-6 8-8 7-10 4-13 2h-263l-16-3-9-5-10-9-6-9-3-11-1-12 3-14 13-47 10-34 17-46 7-20 9-22 18-39 13-28 10-19 11-19 14-25 10-17 17-25 11-16 15-22 9-12 14-17 9-11 26-32 16-17 18-18 1-2h2l2-4 27-27 8-7 14-12 11-10 8-7 14-12 15-12 11-8 12-9 19-14 12-9 20-13 21-13 24-15 21-12 38-19 17-9 20-9 43-17 31-12 47-14 28-8 41-9 45-9 74-9 20-2 17-1z"/>
<path transform="translate(79,1194)" d="m0 0h609l15 2 12 4 16 9 10 9 5 5 8 9 8 14 5 16 1 6v24l-4 16-5 11-7 11-8 10h-2l-2 4-175 175-3 2 2 4 26 22 14 12 15 11 40 28 26 15 21 12 21 11 36 16 14 6 34 12 24 8 48 12 26 5 44 6 22 2 37 2h29l26-1 43-4 44-7 36-8 26-7 26-8 37-14 41-18 29-15 21-12 28-17 14-10 19-13 10-8 14-11 11-9 12-11 10-9 12-11 15-15 1-2h2v-2h2l2-4 7-7 9-11 9-10 11-14 10-13 14-19 17-26 9-15 9-19 8-16 10-21 33-77 8-18 7-13 2-3h2l2-4 10-6 5-2 8-1h260l12 2 9 4 8 6 7 8 5 10 2 8v11l-7 27-14 50-6 20-16 44-14 37-30 66-16 31-14 24-12 22-11 17-18 27-13 19-12 17-9 11-13 16-8 10-13 16-9 11-7 8-22 22-1 2h-2l-2 4-32 32-8 7-10 9-8 7-10 9-8 7-14 12-20 15-21 16-19 14-13 9-19 12-23 14-11 7-20 12-38 19-19 10-24 11-63 25-31 10-48 14-30 7-54 11-35 5-60 7-26 2-7 1h-118l-24-3-60-7-47-8-42-9-45-12-47-15-41-15-31-13-25-11-25-12-28-14-39-22-26-16-39-26-14-10-21-16-12-9-11-9-13-11-14-11-8-8-8-7-13-12-5-4h-5l-2 4-166 166-11 9-14 8-13 5-15 3h-17l-18-4-16-8-11-8-13-13-7-10-7-14-4-12v-632l8-20 9-14 12-13 12-9 14-7 15-4z"/>
<path transform="translate(947,2047)" d="m0 0h5v1h-5z"/>
<path transform="translate(2047,149)" d="m0 0"/>
<path transform="translate(954)" d="m0 0"/>
</svg>
