<?xml version="1.0" encoding="UTF-8"?>
<svg version="1.1" viewBox="0 0 2048 2048" width="1280" height="1280" xmlns="http://www.w3.org/2000/svg">
<path transform="translate(1327)" d="m0 0h55v1l23 5 20 7 16 7 21 13 9 7 12 11 11 10 15 20 10 15 9 16 32 56 11 19 48 84 13 22 6 11 88 154 15 26 16 28 15 26 11 19 9 3 26 5 27 10 19 10 18 12 10 9 8 7 10 10 12 16 9 14 8 16 5 11 7 24 3 21 1 10v154l-3 13-9 14-10 8-12 5-10 2-334 1-33 2-29 4-27 6-26 8-26 10-29 14-19 11-14 9-19 14-13 11-8 7-15 14-14 15-7 8-11 14-13 18-13 21-7 12-13 28-11 29-8 29-5 23-4 30-1 15v38l2 24 5 32 8 32 9 26 8 19 12 25 13 22 13 19 14 18 10 11 14 16 8 7 14 13 14 11 16 12 21 13 16 9 26 13 30 11 23 7 28 6 29 4 36 2 328 1 15 3 10 5 10 9 6 9 4 11 1 4v155l-4 31-8 26-7 16-10 18-8 11-13 16-11 11-14 11-8 6-16 9-16 8-24 8-23 5-5 1h-1619l-27-5-25-8-17-8-19-11-13-11-10-8-9-9-9-11-10-13-10-18-7-14-9-28-3-17-1-4v-1163l2-7 4-17 8-24 13-25 8-12 12-14 7-9 11-9 13-11 15-9 19-10 17-6 22-6 30-3 166-1 18-10 22-13 120-70 26-15 120-70 26-15 27-16 28-16 53-31 26-15 17-10 24-14 26-15 17-10 48-28 26-15 27-16 28-16 17-10 48-28 26-15 72-42 26-15 27-16 23-13 26-12 16-5 20-5zm18 94-18 4-16 7-24 14-26 15-27 16-21 12-24 14-26 15-17 10-144 84-26 15-72 42-26 15-144 84-26 15-96 56-26 15-17 10-29 17-3 2v2h178l10-5 17-10 29-17 26-15 22-13 26-15 27-16 45-26 24-14 26-15 27-16 26-15 24-14 43-25 26-15 22-13 26-15 27-16 28-16 17-10 24-14 26-15 27-16 21-12 24-14 26-15 17-10 24-14 11-7 1-2-9-13-12-12-18-11-17-6-12-2zm226 289-24 14-28 16-72 42-26 15-27 16-16 9-72 42-32 19-1 2h401l-7-14-14-24-15-27-14-24-14-25-14-24-14-25-7-12z"/>
<path transform="translate(1585,1023)" d="m0 0h318l27 2 18 4 19 7 18 10 14 11 12 11 13 16 8 14 7 15 6 19 2 4h1v334h-2l-6 20-5 12-9 17-10 13-11 12-9 8-14 10-15 8-16 6-16 4-14 2-13 1h-332l-20-1-27-4-21-5-19-6-20-8-19-9-23-14-16-12-10-8-16-15-9-9-7-8-13-16-10-15-11-19-12-25-8-22-7-28-4-25-2-33 2-29 5-29 7-26 8-22 13-27 13-21 12-16 8-10 11-12 1-2h2l2-4 8-7 10-9 16-12 15-10 19-11 19-9 21-8 30-8 25-4zm-13 188-15 3-14 5-12 7-11 9-8 8-8 11-8 16-4 13-2 21 1 14 5 19 7 14 9 12 7 8 13 10 16 8 12 4 11 2h22l15-3 16-6 14-9 11-9 11-14 8-15 5-16 2-15-1-18-3-14-6-15-8-13-6-8h-2l-2-4-13-10-17-9-17-5-7-1zm474 254 1 2z"/>
<path transform="translate(158,2047)" d="m0 0h6v1h-6z"/>
<path transform="translate(1,1893)" d="m0 0"/>
</svg>
